<!-- Created with Inkscape (http://www.inkscape.org/) -->
<svg width="188.48" height="188.84" version="1.1" viewBox="0 0 188.48 188.84" xmlns="http://www.w3.org/2000/svg">
 <g transform="translate(17.358 -140.42)">
  <g transform="matrix(1.0073,0,0,1.0073,814.67,-62.908)">
   <circle cx="-729.92" cy="271.34" r="59.562" fill="#00d4aa"/>
   <path d="m-705.47 246.35c-0.95612 0.0328-1.8336 0.53985-2.3397 1.3499l-27.087 41.44-17.548-15.163c-0.75367-0.78185-1.8842-1.0743-2.9247-0.74805-1.0349 0.32052-1.8054 1.198-1.9854 2.2666-0.18 1.0742 0.25305 2.1541 1.1305 2.801l20.068 17.368c0.62995 0.5344 1.4624 0.77053 2.2779 0.65245 0.8212-0.1235 1.5467-0.59057 1.9966-1.2824l28.932-44.185c0.6187-0.90553 0.6693-2.0754 0.135-3.0316-0.5344-0.9505-1.5636-1.5186-2.6548-1.468z" fill="#fff" stroke-width="1.4398"/>
  </g>
 </g>
 <g transform="translate(36.747 10.014)" aria-label="Complete!">
  <path d="m-12.438 152.9 4.4531 0.48828q-0.42969 4.0039-3.1055 6.6016-2.6562 2.5781-6.9922 2.5781-3.6523 0-5.9375-1.8359-2.2656-1.8359-3.4961-4.9805-1.2305-3.1445-1.2305-6.9336 0-6.0938 2.8906-9.9023 2.8906-3.8281 7.9492-3.8281 3.9648 0 6.6016 2.4414 2.6367 2.4414 3.3203 6.9922l-4.4531 0.46875q-1.2305-6.0352-5.4297-6.0352-2.6953 0-4.1992 2.5195-1.4844 2.5-1.4844 7.2656 0 4.8438 1.6016 7.3242 1.6016 2.4609 4.2383 2.4609 2.1094 0 3.5938-1.6602 1.4844-1.6602 1.6797-3.9648z"/>
  <path d="m3.3235 162.57q-4.375 0-6.6797-3.1445t-2.3047-7.207q0-4.375 2.5391-7.2852 2.5586-2.9102 6.7383-2.9102 3.9648 0 6.5039 2.832 2.5586 2.832 2.5586 7.3633 0 4.668-2.6562 7.5195-2.6367 2.832-6.6992 2.832zm0.15625-3.6719q4.4922 0 4.4922-6.6992 0-3.0274-1.0742-4.7656-1.0742-1.7578-3.3008-1.7578-2.3047 0-3.418 1.8164-1.1133 1.7969-1.1133 4.7852 0 3.2227 1.1719 4.9219 1.1914 1.6992 3.2422 1.6992z"/>
  <path d="m46.234 162.16h-4.668v-12.285q0-3.8281-3.3984-3.8281-1.9727 0-3.1641 1.4453-1.1719 1.4453-1.1719 4.3164v10.352h-4.7266v-12.285q0-3.8867-3.1836-3.8867-1.9336 0-3.2617 1.5625-1.3086 1.5625-1.3086 4.2578v10.352h-4.5898v-19.727h4.3164v4.1992q2.1094-4.6094 6.582-4.6094 4.3555 0 5.6641 4.6094 2.3828-4.6094 6.582-4.6094 2.8516 0 4.5898 1.7773 1.7383 1.7773 1.7383 4.4141z"/>
  <path d="m56.156 168.82h-4.5312v-26.387h4.2578v3.4375q2.0508-3.8476 6.0352-3.8476 3.2812 0 5.2344 2.8516t1.9531 7.2852q0 4.1992-1.875 7.3047-1.8555 3.1055-5.5469 3.1055-3.8086 0-5.5273-3.1641zm0-14.746q0 2.1484 1.2695 3.5742 1.2891 1.4062 2.8516 1.4062 2.1289 0 3.1055-1.8555 0.99609-1.875 0.99609-4.7461 0-3.0078-0.99609-4.8828-0.99609-1.8945-2.9688-1.8945-1.7773 0-3.0273 1.543-1.2305 1.543-1.2305 4.043z"/>
  <path d="m77.62 162.16h-4.4531v-26.66h4.4531z"/>
  <path d="m95.491 155.87 4.0234 0.54688q-0.78125 2.6758-3.0469 4.4141t-5.6836 1.7383q-4.1016 0-6.6016-2.7539-2.5-2.7539-2.5-7.4609 0-4.4727 2.5195-7.4024 2.5195-2.9297 6.8359-2.9297 4.2188 0 6.5234 2.8906 2.3047 2.8906 2.3047 7.4219l-0.01953 0.50781h-13.535q0 2.0117 0.37109 3.2227 0.39062 1.2109 1.5234 2.1094 1.1328 0.89844 2.832 0.89844 3.3008 0 4.4531-3.2031zm-0.27344-5.8984q-0.01953-2.1289-1.2891-3.4766-1.25-1.3476-3.1055-1.3476-1.8359 0-3.0664 1.2695-1.2305 1.25-1.4453 3.5547z"/>
  <path d="m113.11 158.69v3.4766q-1.9922 0.42968-3.0859 0.42968-1.7969 0-3.0859-0.70312-1.2891-0.72266-1.8945-1.9531-0.58594-1.25-0.58594-3.8281v-10.215h-2.4609v-3.457h2.7148l0.41015-5.1367 3.6524-0.33203v5.4688h3.9648v3.457h-3.9648v9.6289q0 1.8555 0.66406 2.5391 0.68359 0.66407 2.5586 0.66407 0.52735 0 1.1133-0.0391z"/>
  <path d="m129.4 155.87 4.0234 0.54688q-0.78125 2.6758-3.0469 4.4141-2.2656 1.7383-5.6836 1.7383-4.1016 0-6.6016-2.7539-2.5-2.7539-2.5-7.4609 0-4.4727 2.5195-7.4024 2.5195-2.9297 6.8359-2.9297 4.2188 0 6.5234 2.8906 2.3047 2.8906 2.3047 7.4219l-0.0195 0.50781h-13.535q0 2.0117 0.37109 3.2227 0.39063 1.2109 1.5234 2.1094t2.832 0.89844q3.3008 0 4.4531-3.2031zm-0.27344-5.8984q-0.0195-2.1289-1.2891-3.4766-1.25-1.3476-3.1055-1.3476-1.8359 0-3.0664 1.2695-1.2305 1.25-1.4453 3.5547z"/>
  <path d="m143.73 135.5-1.9726 18.574h-2.0312l-1.875-18.574zm-0.60546 21.777v4.8828h-4.8633v-4.8828z"/>
 </g>
</svg>
